<mxfile host="app.diagrams.net" modified="2024-07-02T06:03:30.358Z" agent="Mozilla/5.0 (X11; Linux x86_64) AppleWebKit/537.36 (KHTML, like Gecko) Chrome/125.0.0.0 Safari/537.36" version="24.6.4" etag="QhKvRyXPHn7DBrrfA8HY" type="github">
  <diagram name="Page-1" id="ZeD8fasbjf-t5lshoi1k">
    <mxGraphModel>
      <root>
        <mxCell id="0" />
        <mxCell id="1" parent="0" />
      </root>
    </mxGraphModel>
  </diagram>
</mxfile>
